<svg xmlns="http://www.w3.org/2000/svg" version="1.1" xmlns:xlink="http://www.w3.org/1999/xlink" xmlns:svgjs="http://svgjs.com/svgjs" width="2000px" height="2000px"><svg xmlns="http://www.w3.org/2000/svg" xmlns:xlink="http://www.w3.org/1999/xlink" width="1900.000pt" height="1900.000pt" viewBox="0 0 2000 2000" version="1.1">
<g id="SvgjsG1000">
<path style=" stroke:none;fill-rule:nonzero;fill:rgb(0%,0%,0%);fill-opacity:1;" d="M 958.398438 466.667969 C 825.601562 478.535156 709.332031 533.332031 617.601562 627.199219 C 555.199219 691.199219 510.265625 768.132812 485.867188 853.332031 C 470.667969 906.132812 464.398438 956.398438 465.734375 1013.332031 C 467.734375 1094.933594 484.933594 1165.332031 520.667969 1238 C 606.535156 1412.132812 780.132812 1526.398438 973.332031 1536 C 1064.132812 1540.535156 1151.199219 1523.199219 1231.332031 1484.800781 C 1386.132812 1410.398438 1496.265625 1267.332031 1527.867188 1099.332031 C 1534 1066.933594 1534.933594 1056.398438 1535.601562 1008.667969 C 1536.132812 970.535156 1535.867188 958.398438 1534 942.667969 C 1520 820.265625 1466.667969 709.332031 1380 622.535156 C 1294.535156 536.933594 1184.398438 483.464844 1062.667969 468.667969 C 1041.734375 466.132812 978.265625 464.933594 958.398438 466.667969 Z M 1060 478 C 1244.132812 499.734375 1402.667969 614.398438 1479.464844 781.464844 C 1511.734375 851.601562 1527.066406 922 1527.066406 1000 C 1527.199219 1045.199219 1523.464844 1078.398438 1513.867188 1120 C 1472.933594 1296.132812 1342.667969 1440.132812 1170.398438 1499.332031 C 1114.933594 1518.398438 1062.132812 1527.066406 1001.332031 1527.066406 C 965.066406 1527.199219 948.933594 1525.867188 916 1520.535156 C 725.464844 1489.464844 566.265625 1354.933594 503.464844 1172 C 490.398438 1134 482.800781 1100.667969 477.867188 1059.332031 C 474.398438 1031.332031 474.398438 969.867188 477.734375 942.667969 C 488.398438 856.132812 515.066406 782.535156 560.933594 712.800781 C 608.535156 640.398438 670.800781 582.667969 747.332031 539.867188 C 813.066406 503.199219 885.464844 482 967.332031 475.464844 C 982.132812 474.265625 1042.800781 475.867188 1060 478 Z M 1060 478 "></path>
<path style=" stroke:none;fill-rule:nonzero;fill:rgb(0%,0%,0%);fill-opacity:1;" d="M 836 798.132812 L 836 812.265625 L 850.398438 811.464844 C 879.199219 809.734375 882 809.867188 881.332031 812 C 881.066406 813.066406 880.398438 896.800781 880 998 L 879.332031 1182 L 875.332031 1190 C 869.066406 1202.535156 859.867188 1208.398438 843.066406 1210.265625 L 836 1211.066406 L 836 1232 L 1166.667969 1232 L 1166.800781 1221.601562 C 1166.800781 1216 1167.601562 1188.265625 1168.535156 1160 C 1169.464844 1131.734375 1169.867188 1108.132812 1169.332031 1107.601562 C 1168.800781 1107.066406 1164 1106.667969 1158.535156 1106.933594 L 1148.667969 1107.332031 L 1147.867188 1120 C 1144.667969 1166.132812 1129.734375 1188.800781 1094.535156 1200.535156 C 1080.398438 1205.199219 1064.800781 1206.398438 995.332031 1207.464844 L 935.332031 1208.265625 L 935.734375 1110.535156 C 936 1056.667969 936.398438 1012.535156 936.535156 1012.398438 C 936.667969 1012.132812 953.066406 1011.332031 972.933594 1010.398438 C 1000.667969 1009.199219 1011.734375 1009.199219 1020.265625 1010.398438 C 1046.535156 1014.132812 1056.265625 1025.601562 1058.265625 1054.933594 L 1059.066406 1066.667969 L 1080 1066.667969 L 1080 932 L 1066 932 C 1055.734375 932 1052 932.398438 1052 933.601562 C 1052 934.535156 1052.933594 945.464844 1054 958 C 1055.066406 970.398438 1056 982 1056 983.601562 L 1056 986.667969 L 936 986.667969 L 936 924 C 936 889.464844 936.667969 855.464844 937.332031 848.265625 C 939.734375 825.867188 947.332031 815.332031 964.933594 810.535156 C 972.667969 808.265625 980.398438 807.734375 1016.667969 807.066406 C 1057.332031 806.265625 1059.867188 806.398438 1070.667969 809.199219 C 1105.601562 818 1122.265625 838.800781 1124.800781 876.667969 C 1125.199219 882.535156 1125.734375 889.332031 1126.132812 891.601562 L 1126.800781 896 L 1147.066406 896 L 1146.132812 860.933594 C 1145.734375 841.734375 1144.933594 816.535156 1144.398438 804.933594 L 1143.601562 784 L 836 784 Z M 836 798.132812 "></path>
</g>
</svg><style>@media (prefers-color-scheme: light) { :root { filter: none; } }
</style></svg>