<?xml version="1.0" standalone="no"?>
<!DOCTYPE svg PUBLIC "-//W3C//DTD SVG 20010904//EN"
 "http://www.w3.org/TR/2001/REC-SVG-20010904/DTD/svg10.dtd">
<svg version="1.0" xmlns="http://www.w3.org/2000/svg"
 width="1500.000000pt" height="1500.000000pt" viewBox="0 0 1500.000000 1500.000000"
 preserveAspectRatio="xMidYMid meet">

<g transform="translate(0.000000,1500.000000) scale(0.100000,-0.100000)"
fill="#000000" stroke="none">
<path d="M7188 11500 c-996 -89 -1868 -500 -2556 -1204 -468 -480 -805 -1057
-988 -1696 -114 -396 -161 -773 -151 -1200 15 -612 144 -1140 412 -1685 644
-1306 1946 -2163 3395 -2235 681 -34 1334 96 1935 384 1161 558 1987 1631
2224 2891 46 243 53 322 58 680 4 286 2 377 -12 495 -105 918 -505 1750 -1155
2401 -641 642 -1467 1043 -2380 1154 -157 19 -633 28 -782 15z m762 -85 c1381
-163 2570 -1023 3146 -2276 242 -526 357 -1054 357 -1639 1 -339 -27 -588 -99
-900 -307 -1321 -1284 -2401 -2576 -2845 -416 -143 -812 -208 -1268 -208 -272
-1 -393 9 -640 49 -1429 233 -2623 1242 -3094 2614 -98 285 -155 535 -192 845
-26 210 -26 671 -1 875 80 649 280 1201 624 1724 357 543 824 976 1398 1297
493 275 1036 434 1650 483 111 9 566 -3 695 -19z"/>
<path d="M6270 9014 l0 -106 108 6 c216 13 237 12 232 -4 -2 -8 -7 -636 -10
-1395 l-5 -1380 -30 -60 c-47 -94 -116 -138 -242 -152 l-53 -6 0 -78 0 -79
1240 0 1240 0 1 78 c0 42 6 250 13 462 7 212 10 389 6 393 -4 4 -40 7 -81 5
l-74 -3 -6 -95 c-24 -346 -136 -516 -400 -604 -106 -35 -223 -44 -744 -52
l-450 -6 3 733 c2 404 5 735 6 736 1 2 124 8 273 15 208 9 291 9 355 0 197
-28 270 -114 285 -334 l6 -88 78 0 79 0 0 505 0 505 -105 0 c-77 0 -105 -3
-105 -12 0 -7 7 -89 15 -183 8 -93 15 -180 15 -192 l0 -23 -450 0 -450 0 0
470 c0 259 5 514 10 568 18 168 75 247 207 283 58 17 116 21 388 26 305 6 324
5 405 -16 262 -66 387 -222 406 -506 3 -44 7 -95 10 -112 l5 -33 76 0 76 0 -7
263 c-3 144 -9 333 -13 420 l-6 157 -1153 0 -1154 0 0 -106z"/>
</g>
</svg>
